<svg xmlns="http://www.w3.org/2000/svg" viewBox="0 0 600 600" role="img" aria-labelledby="t">
<title id="t">Nyama Choma Rub</title>
<defs>
<pattern id="p" width="70" height="70" patternUnits="userSpaceOnUse">
<path d="M35 14 C24 30 22 38 30 48 C24 52 22 58 35 62 C48 58 46 52 40 48 C48 38 46 30 35 14 Z" fill="#FFF9EF"/>
</pattern>
</defs>
<rect width="600" height="600" fill="#A2482A"/>
<rect width="600" height="600" fill="url(#p)" opacity="0.14"/>
<!-- flame accents -->
<g fill="#F2A93B">
<path d="M96 240 C70 200 76 170 100 140 C104 174 118 184 124 200 C136 180 132 160 130 150 C154 178 156 220 128 246 C118 256 104 254 96 240 Z"/>
<path d="M510 300 C486 264 492 236 512 210 C516 238 528 246 532 260 C542 244 540 228 538 220 C558 244 558 280 536 302 C526 310 516 310 510 300 Z"/>
</g>
<g fill="#FFF9EF" opacity="0.8">
<path d="M108 240 C98 222 104 206 114 196 C116 212 126 216 126 226 C128 240 118 246 108 240 Z"/>
<path d="M520 298 C512 284 516 270 524 262 C526 276 534 280 534 288 C536 300 528 304 520 298 Z"/>
</g>
<!-- pouch -->
<ellipse cx="300" cy="484" rx="160" ry="14" fill="#2A1A11" opacity="0.3"/>
<path d="M176 130 L424 130 L446 458 C446 474 434 484 418 484 L182 484 C166 484 154 474 154 458 Z" fill="#F7CB80"/>
<path d="M300 130 L424 130 L446 458 C446 474 434 484 418 484 L300 484 Z" fill="#2A1A11" opacity="0.06"/>
<rect x="176" y="130" width="248" height="28" fill="#2A1A11"/>
<path d="M178 172 H422" stroke="#2A1A11" stroke-width="6" stroke-linecap="round" stroke-dasharray="10 8" opacity="0.5"/>
<path d="M176 190 L156 458" stroke="#2A1A11" stroke-width="3" opacity="0.15"/>
<!-- pouch label -->
<rect x="196" y="214" width="208" height="210" rx="12" fill="#FFF9EF"/>
<rect x="196" y="214" width="208" height="12" fill="#C8552F"/>
<rect x="196" y="412" width="208" height="12" fill="#C8552F"/>
<path d="M300 244 C280 274 282 296 296 306 C288 312 286 322 300 330 C314 322 312 312 304 306 C318 296 320 274 300 244 Z" fill="#C8552F"/>
<path d="M300 280 C292 294 294 304 300 308 C306 304 308 294 300 280 Z" fill="#F2A93B"/>
<text x="300" y="376" text-anchor="middle" font-family="Karla, Arial, sans-serif" font-weight="800" font-size="40" letter-spacing="0.08em" fill="#2A1A11">CHOMA</text>
<text x="300" y="402" text-anchor="middle" font-family="Karla, Arial, sans-serif" font-weight="800" font-size="14" letter-spacing="0.24em" fill="#C8552F">COARSE RUB</text>
<!-- spilled rub -->
<g fill="#C8552F">
<rect x="94" y="436" width="16" height="9" rx="3" transform="rotate(-25 102 440)"/><rect x="128" y="458" width="16" height="9" rx="3" transform="rotate(30 136 462)"/><rect x="460" y="446" width="16" height="9" rx="3" transform="rotate(-40 468 450)"/><rect x="490" y="470" width="16" height="9" rx="3" transform="rotate(15 498 474)"/><rect x="70" y="470" width="16" height="9" rx="3" transform="rotate(50 78 474)"/>
</g>
<g fill="#2A1A11">
<circle cx="116" cy="470" r="6"/><circle cx="90" cy="456" r="5"/><circle cx="148" cy="480" r="5"/><circle cx="480" cy="462" r="6"/><circle cx="512" cy="450" r="5"/><circle cx="454" cy="478" r="5"/><circle cx="530" cy="478" r="4"/>
</g>
<g fill="#F2A93B">
<circle cx="104" cy="484" r="4"/><circle cx="136" cy="446" r="4"/><circle cx="466" cy="482" r="4"/><circle cx="502" cy="438" r="4"/>
</g>
<g fill="#FFF9EF">
<circle cx="126" cy="490" r="3"/><circle cx="80" cy="486" r="3"/><circle cx="494" cy="488" r="3"/><circle cx="520" cy="464" r="3"/>
</g>
<!-- label -->
<rect x="50" y="500" width="500" height="56" rx="28" fill="#FFF9EF" stroke="#2A1A11" stroke-width="3"/>
<text x="300" y="536" text-anchor="middle" font-family="Karla, Arial, sans-serif" font-weight="800" font-size="22" letter-spacing="0.06em" fill="#2A1A11">NYAMA CHOMA RUB</text>
</svg>
